<?xml version="1.0" encoding="utf-8"?>
<!-- Generated by IcoMoon.io -->
<!DOCTYPE svg PUBLIC "-//W3C//DTD SVG 1.1//EN" "http://www.w3.org/Graphics/SVG/1.1/DTD/svg11.dtd">
<svg version="1.1" xmlns="http://www.w3.org/2000/svg" xmlns:xlink="http://www.w3.org/1999/xlink" width="1024" height="1024" viewBox="0 0 1024 1024">
<g id="icomoon-ignore">
</g>
<path fill="#000" d="M48 1024h448c8.832 0 16-7.168 16-16s-7.168-16-16-16h-448c-8.832 0-16-7.168-16-16v-928c0-8.832 7.168-16 16-16h672c8.832 0 16 7.168 16 16v160c0 8.832 7.168 16 16 16s16-7.168 16-16v-160c0-26.464-21.536-48-48-48h-672c-26.464 0-48 21.536-48 48v928c0 26.464 21.536 48 48 48zM576 336v640c0 26.464 21.536 48 48 48h352c26.464 0 48-21.536 48-48v-640c0-26.464-21.536-48-48-48h-352c-26.464 0-48 21.536-48 48zM992 336v640c0 8.832-7.168 16-16 16h-352c-8.832 0-16-7.168-16-16v-640c0-8.832 7.168-16 16-16h352c8.832 0 16 7.168 16 16zM352 896c0 17.673 14.327 32 32 32s32-14.327 32-32c0-17.673-14.327-32-32-32s-32 14.327-32 32zM768 896c0 17.673 14.327 32 32 32s32-14.327 32-32c0-17.673-14.327-32-32-32s-32 14.327-32 32z"></path>
</svg>
